<?xml version="1.0" encoding="utf-8"?>
<!-- Generator: Adobe Illustrator 15.1.0, SVG Export Plug-In  -->
<!DOCTYPE svg PUBLIC "-//W3C//DTD SVG 1.1//EN" "http://www.w3.org/Graphics/SVG/1.1/DTD/svg11.dtd" [
	<!ENTITY ns_flows "http://ns.adobe.com/Flows/1.0/">
]>
<svg version="1.1"
	 xmlns="http://www.w3.org/2000/svg" xmlns:xlink="http://www.w3.org/1999/xlink" xmlns:a="http://ns.adobe.com/AdobeSVGViewerExtensions/3.0/"
	 x="0px" y="0px" width="363px" height="241px" viewBox="-10.295 -51.75 363 241"
	 overflow="visible" enable-background="new -10.295 -51.75 363 241" xml:space="preserve">
<defs>
</defs>
<path fill="#EB5C2B" d="M244.659,35.921c0,0-6.854,1.496-13.535,1.545c-6.672,0.05-17.623-1.337-20.182-2.587
	c-2.568-1.241-4.215-2.041-6.243-3.026c-10.083-4.894-18.463-8.963-18.468-8.963c-0.28-0.141-0.569-0.209-0.859-0.322
	c-0.073-0.024-0.136-0.039-0.198-0.067c-1.04-0.425-2.155-0.724-3.33-0.852l-28.78-4.061l-31.81,27.64
	c0.521,0.535,1.292,1.183,2.292,1.85c0.649,0.429,1.396,0.863,2.227,1.266c0.731,0.357,1.522,0.689,2.387,0.983
	c0.361,0.124,0.731,0.257,1.121,0.363c4.537,1.262,11.305,1.494,19.029-3.643c0.716-0.479,4.904-3.289,6.176-4.188
	c2.033-1.437,5.667-2.759,11.081-2.27c5.413,0.494,13.954,3.051,13.954,3.051l32.215,18.001l48.866,33.495l-6.065-26.575
	l-8.323-22.777L244.659,35.921z"/>
<polygon fill="#EB5C2B" points="270.749,115.917 295.244,107.569 317.53,104.181 340.364,96.649 337.978,79.264 319.136,26.902 
	315.233,5.851 288.434,15.695 267.48,17.858 245.622,25.122 260.624,70.575 "/>
<polygon fill="#3B2418" points="67.115,114.243 43.671,103.285 21.884,97.5 0,87.535 4.259,70.512 28.672,20.503 34.834,0 
	60.409,12.694 81.003,17.118 101.944,26.71 82.098,70.266 "/>
<g>
	<polygon fill="#EB5C2B" points="114.676,96.351 131.485,101.662 127.042,117.855 121.953,131.83 117.415,131.673 113.142,130.323 
		110.066,129.352 106.117,123.444 	"/>
</g>
<g>
	<polygon fill="#EB5C2B" points="136.621,100.056 153.796,104.205 151.366,115.939 146.783,126.405 143.729,136.071 140.67,141.709 
		137.543,141.999 131.762,141.449 127.877,138.945 125.022,136.766 128.318,124.756 133.215,110.834 	"/>
</g>
<g>
	<polygon fill="#EB5C2B" points="156.134,111.926 172.944,117.236 164.325,144.517 160.727,151.86 158.295,152.368 150.387,151.147 
		144.713,148.078 149.294,129.537 	"/>
</g>
<g>
	<polygon fill="#3B2418" points="194.463,135.342 175.899,124.037 170.348,141.604 186.423,152.047 192.613,154.632 
		197.633,150.882 201.605,141.07 	"/>
</g>
<g>
	<polygon fill="#EB5C2B" points="93.463,90.412 105.245,94.134 110.273,95.724 107.647,106.559 104.032,114.971 93.516,113.761 
		88.562,109.924 89.402,103.269 	"/>
</g>
<g>
	<path fill="#3B2418" d="M253.979,94.469l-49.251-33.046l-27.071-14.801l-12.496-2.618l-8.123,1.47c0,0-5.625,3.828-6.287,4.267
		c-5.564,3.697-11.371,5.416-17.246,5.103c-1.822-0.097-3.645-0.393-5.412-0.889c-0.372-0.101-0.733-0.222-1.09-0.34l-0.24-0.081
		c-1.032-0.352-2.007-0.751-2.941-1.21c-0.952-0.461-1.871-0.984-2.726-1.553c-1.198-0.8-2.239-1.649-3.035-2.471l-3.213-3.338
		l3.484-3.06c0.479-0.424,7.455-6.555,14.337-12.561c-2.885,0.17-5.645,0.43-7.856,0.833c-8.551,1.55-22.38,7.747-22.38,7.747
		L80.39,94.258c0,0,3.364,5.852,4.438,7.337l3.996-12.648l1.466-4.64l4.64,1.466l11.783,3.722l4.57,1.445l0.22-0.695l4.641,1.466
		l16.376,5.174l0.83-2.625l4.415,1.066l6.012,1.452c1.016,0.069,2.03,0.25,3.018,0.558c0.444,0.139,0.875,0.303,1.297,0.484
		l6.849,1.654l4.578,1.106l-0.955,4.611l-0.466,2.25l16.315,5.154l4.641,1.466l-1.466,4.641l-0.3,0.951l16.87,9.71l17.195,12.622
		l6.747-2.232l1.757-2.704l2.441-3.758l1.362-4.333l-4.839-3.45c-0.429-0.419-0.906-0.801-1.431-1.136l-1.501-0.955l-4.338-3.093
		l-29.822-18.718l4.656-2.254l14.021,8.943c0.026,0.015,0.044,0.042,0.071,0.061l26.811,17.038c0.866,0.55,1.792,0.92,2.735,1.138
		l2.941,1.754l2.861-2.169l0.666-0.593c0.947-0.562,1.798-1.308,2.497-2.227l0.288-0.256l0.124-0.322
		c0.006-0.009,0.012-0.017,0.018-0.025c0.666-1.045,1.08-2.179,1.263-3.33l0.667-1.747l-0.187-2.917l-4.618-4.452l-8.501-5.522
		l-8.863-7.21l-25.895-15.681c0.054-0.284,0.9-0.737,1.064-0.995c0.699-1.099,2.159-1.422,3.257-0.722l11.6,7.365l10.978,6.978
		l15.353,10.495l10.066,5.661l0.374,0.238c0.336,0.213,0.683,0.392,1.034,0.554l5.174,2.91l3.522-3.663
		c0.932-0.647,1.753-1.486,2.399-2.504c0.932-1.468,1.367-3.107,1.364-4.728l0.473-1.05l0.159-2.48L253.979,94.469z"/>
</g>
</svg>
